<svg width="443" height="415" viewBox="0 0 443 415" fill="none" xmlns="http://www.w3.org/2000/svg">
<path d="M324.739 162.5C247.239 91.5 261.238 0 261.238 0C261.238 0 254.238 62.5 390.238 156C458.089 202.647 466.738 312.995 377.238 384.5C287.738 456.005 145.239 379 145.239 379V353L70.7387 302.5L63.2387 283C63.2387 283 9.2538 235 0.844734 227C-7.56434 219 49.5792 213.236 49.5792 213.236C49.5792 213.236 46.7387 191 46.7387 185.5C46.7387 180 104.739 183 106.739 223.5C107.712 243.218 107.264 250.136 106.547 252.044L125.239 268L128.239 265.5L117.239 246.5C117.239 227.816 117.239 215.552 109.036 200.847C106.958 197.123 108.21 192.391 112.311 191.224C123.963 187.909 146.77 185.253 164.239 207C188.739 237.5 223.739 307.5 232.739 315.5C241.739 323.5 247.239 321 247.239 321C247.239 321 262.559 324 244.345 281.5C226.13 239 321.345 204 299.345 239C277.345 274 313.739 406.5 352.739 343.5C391.739 280.5 402.239 233.5 324.739 162.5Z" fill="#3D8472"/>
<rect x="216.039" y="127" width="27.6106" height="80" rx="4" fill="#2D2A7B"/>
<rect width="27.6106" height="80" rx="4" transform="matrix(0 -1 -1 0 269.845 180.805)" fill="#2D2A7B"/>
<path d="M313.845 348.5C309.42 342.54 304.845 332 304.845 332C304.845 332 279.878 356.219 259.845 364.5C237.283 373.826 197.845 372.5 197.845 372.5C197.845 372.5 255.98 383.152 289.345 376.5C306.724 373.035 331.345 360.5 331.345 360.5C331.345 360.5 318.457 354.712 313.845 348.5Z" fill="#337865"/>
<path d="M196.591 296.995C203.159 326.247 193.938 344.255 187.246 352.874C185.95 354.543 183.955 353.143 184.696 351.165C188.734 340.384 194.583 319.949 190.825 299.234C187.093 278.661 165.688 264.187 152.44 257.057C150.457 255.991 151.23 253.353 153.411 253.912C167.44 257.503 190.031 267.775 196.591 296.995Z" fill="white"/>
<path d="M131.845 343.5L145.845 354L140.345 274L131.845 343.5Z" fill="#337865"/>
<path d="M54.0947 227L64.0947 283L46.8447 269L54.0947 227Z" fill="#337865"/>
</svg>
